<svg xmlns="http://www.w3.org/2000/svg" width="1280" height="450" viewBox="0 0 1280 450">
<defs><marker id="arrow" viewBox="0 0 10 10" refX="9" refY="5" markerWidth="7" markerHeight="7" orient="auto"><path d="M0 0L10 5L0 10Z" fill="#315c51"/></marker></defs>
<rect width="1280" height="450" rx="22" fill="#f4f6ef"/>
<g font-family="sans-serif" fill="#234a3c"><text x="32" y="49" font-size="28" font-weight="bold">Bring a task. Keep the veRL training stack.</text>
<rect x="32" y="85" width="350" height="222" rx="14" fill="#fff" stroke="#ccd8cd"/><text x="52" y="122" font-size="24" font-weight="bold">Your environment</text><text x="52" y="162" font-size="19">Query + tool schemas</text><text x="52" y="198" font-size="19">State + executable dynamics</text><text x="52" y="234" font-size="19">Observations + reward</text><text x="52" y="279" font-size="16" fill="#627768">Self-contained record or task plugin</text>
<rect x="465" y="85" width="350" height="222" rx="14" fill="#dbeae1"/><text x="485" y="122" font-size="24" font-weight="bold">Agent Horizon</text><text x="485" y="162" font-size="19">Multi-turn episode lifecycle</text><text x="485" y="198" font-size="19">Context + memory + recovery</text><text x="485" y="234" font-size="19">Episode-linked training segments</text><text x="485" y="279" font-size="16" fill="#627768">Adapts episodes to the training backend</text>
<rect x="898" y="85" width="350" height="222" rx="14" fill="#e1eaf6"/><text x="918" y="122" font-size="24" font-weight="bold">veRL</text><text x="918" y="162" font-size="19">Rollout serving + actor updates</text><text x="918" y="198" font-size="19">Objective + batching + precision</text><text x="918" y="234" font-size="19">Parallelism + weight transfer</text><text x="918" y="279" font-size="16" fill="#627768">Configure the existing training stack</text>
<g stroke="#315c51" stroke-width="2" fill="none" marker-end="url(#arrow)"><path d="M392 181H452"/><path d="M825 181H885"/></g>
<rect x="32" y="331" width="1216" height="91" rx="12" fill="#fff" stroke="#ccd8cd"/><text x="52" y="363" font-size="20" font-weight="bold">Asynchronous execution through veRL separate_async</text><text x="52" y="397" font-size="18">Rollout episodes → segment queue → actor updates → synchronized weights → next episodes</text></g></svg>
